<svg xmlns="http://www.w3.org/2000/svg" width="256" height="256" viewBox="0 0 256 256">
  <defs>
    <linearGradient id="g" x1="0" y1="0" x2="1" y2="1">
      <stop offset="0" stop-color="#0b4ed6"/>
      <stop offset="1" stop-color="#00c4ff"/>
    </linearGradient>
    <filter id="shadow" x="-20%" y="-20%" width="140%" height="140%">
      <feDropShadow dx="0" dy="10" stdDeviation="10" flood-color="#001032" flood-opacity="0.35"/>
    </filter>
  </defs>

  <rect x="18" y="18" width="220" height="220" rx="56" fill="url(#g)" filter="url(#shadow)"/>
  <path d="M58 186c20-10 38-15 54-15 28 0 49 15 86 15v26c-37 0-58-15-86-15-16 0-34 5-54 15v-26z" fill="rgba(255,255,255,0.14)"/>
  <path d="M52 86c38-30 76-40 152-40v26c-76 0-114 10-152 40V86z" fill="rgba(255,255,255,0.12)"/>

  <g font-family="Segoe UI, Calibri, Arial, sans-serif" text-anchor="middle">
    <text x="128" y="150" font-size="92" font-weight="900" fill="#ffffff" letter-spacing="2">SE</text>
    <text x="128" y="188" font-size="16" font-weight="700" fill="rgba(255,255,255,0.78)" letter-spacing="3">SHIV</text>
  </g>
</svg>

